<svg width="51" height="51" xmlns="http://www.w3.org/2000/svg" xmlns:xlink="http://www.w3.org/1999/xlink" xml:space="preserve" overflow="hidden"><g transform="translate(-1066 -556)"><path d="M1083.53 578.047 1082.2 576.719 1081.62 578.153C1080.56 578.259 1079.76 579.162 1079.76 580.225L1079.76 585.856C1079.76 586.653 1080.4 587.237 1081.14 587.237L1081.83 587.237 1081.83 589.681C1081.83 590.478 1082.47 591.062 1083.21 591.062L1083.9 591.062C1084.65 591.062 1085.28 590.425 1085.28 589.681L1085.28 587.237 1092.72 587.237 1083.53 578.047 1083.53 578.047ZM1084.54 582.297 1082.47 582.297C1082.1 582.297 1081.78 581.978 1081.78 581.606L1081.78 580.916C1081.78 580.544 1082.1 580.225 1082.47 580.225L1084.54 580.225C1084.91 580.225 1085.23 580.544 1085.23 580.916L1085.23 581.606C1085.23 581.978 1084.97 582.297 1084.54 582.297Z" fill="#FFFFFF"/><path d="M1087.52 573 1097.03 573C1097.24 573 1097.4 573.106 1097.45 573.319L1099.52 578.1 1092.56 578.1 1101.7 587.237 1101.91 587.237C1102.71 587.237 1103.29 586.6 1103.29 585.856L1103.29 580.172C1103.29 579.109 1102.5 578.206 1101.43 578.1L1099.15 572.628C1098.83 571.778 1097.98 571.194 1097.08 571.194L1085.97 571.194C1085.92 571.194 1085.82 571.194 1085.76 571.194L1087.52 573ZM1101.22 580.862 1101.22 581.553C1101.22 581.925 1100.9 582.244 1100.53 582.244L1098.46 582.244C1098.09 582.244 1097.77 581.925 1097.77 581.553L1097.77 580.862C1097.77 580.491 1098.09 580.172 1098.46 580.172L1100.53 580.172C1100.9 580.172 1101.22 580.491 1101.22 580.862Z" fill="#FFFFFF"/><path d="M1091.5 561.312C1080.34 561.312 1071.31 570.344 1071.31 581.5 1071.31 592.656 1080.34 601.688 1091.5 601.688 1102.66 601.688 1111.69 592.656 1111.69 581.5 1111.69 581.5 1111.69 581.5 1111.69 581.5 1111.69 570.344 1102.66 561.312 1091.5 561.312 1091.5 561.312 1091.5 561.312 1091.5 561.312ZM1107.44 581.5C1107.44 585.006 1106.27 588.406 1104.14 591.169L1081.83 568.856C1088.84 563.491 1098.83 564.872 1104.14 571.831 1106.27 574.594 1107.44 577.994 1107.44 581.5ZM1075.56 581.5C1075.56 577.994 1076.73 574.594 1078.86 571.831L1101.17 594.144C1094.21 599.509 1084.17 598.181 1078.86 591.169 1076.73 588.406 1075.56 585.006 1075.56 581.5L1075.56 581.5Z" fill="#FFFFFF"/></g></svg>