<svg width="56" height="56" xmlns="http://www.w3.org/2000/svg" xmlns:xlink="http://www.w3.org/1999/xlink" xml:space="preserve" overflow="hidden"><g transform="translate(-242 -599)"><path d="M262.292 644.626 271.716 644.626C272.145 644.626 272.563 644.489 272.909 644.235L286.759 634.072C287.622 633.375 287.757 632.111 287.061 631.247 286.426 630.46 285.305 630.268 284.444 630.798L275.821 635.731C275.938 636.292 275.934 636.872 275.811 637.432 275.359 639.305 273.671 640.616 271.744 640.59L262.796 640.59 262.796 638.572 271.872 638.572C272.987 638.57 273.889 637.665 273.887 636.551 273.885 635.439 272.984 634.538 271.872 634.536L259.771 634.536C258.93 634.536 258.105 634.772 257.391 635.216L243.131 642.104 250.191 649.167C253.452 645.903 257.691 644.626 262.292 644.626Z" fill="#FFFFFF"/><path d="M269.016 615.337 269.016 617.667 275.388 617.667 275.388 615.337C275.389 613.358 276.993 611.754 278.972 611.751L296.836 611.751 296.836 605.375 278.972 605.375C273.474 605.383 269.021 609.839 269.016 615.337Z" fill="#FFFFFF"/><path d="M267.67 622.625C267.67 623.43 267.017 624.083 266.212 624.083 265.406 624.083 264.753 623.43 264.753 622.625 264.753 621.82 265.406 621.167 266.212 621.167 267.017 621.167 267.67 621.82 267.67 622.625Z" fill="#FFFFFF"/><path d="M265.337 628.167C265.337 629.133 264.553 629.917 263.587 629.917 262.62 629.917 261.837 629.133 261.837 628.167 261.837 627.2 262.62 626.417 263.587 626.417 264.553 626.417 265.337 627.2 265.337 628.167Z" fill="#FFFFFF"/><path d="M281.962 626.708C281.962 627.514 281.309 628.167 280.503 628.167 279.698 628.167 279.045 627.514 279.045 626.708 279.045 625.903 279.698 625.25 280.503 625.25 281.309 625.25 281.962 625.903 281.962 626.708Z" fill="#FFFFFF"/><path d="M275.64 626.654C275.64 624.593 272.419 620 272.419 620 272.419 620 269.197 624.58 269.198 626.654 269.198 626.68 269.198 626.706 269.198 626.732 269.219 628.511 270.679 629.936 272.458 629.915 274.237 629.893 275.662 628.433 275.64 626.654Z" fill="#FFFFFF"/></g></svg>