<svg width="58" height="58" xmlns="http://www.w3.org/2000/svg" xmlns:xlink="http://www.w3.org/1999/xlink" xml:space="preserve" overflow="hidden"><g transform="translate(-989 -224)"><path d="M1018 239.104C1010.33 239.104 1003.38 242.246 998.365 247.26L1001.81 250.704C1005.92 246.535 1011.66 243.938 1018 243.938 1024.34 243.938 1030.08 246.535 1034.25 250.644L1037.7 247.2C1032.56 242.246 1025.67 239.104 1018 239.104Z"/><path d="M1003.5 252.396 1006.94 255.84C1009.66 252.94 1013.65 251.188 1018 251.188 1022.35 251.188 1026.28 252.94 1029.12 255.779L1032.5 252.396C1028.75 248.65 1023.62 246.354 1018 246.354 1012.38 246.354 1007.19 248.65 1003.5 252.396Z"/><path d="M1008.64 257.531 1012.08 260.975C1013.59 259.465 1015.7 258.498 1018.06 258.498 1020.42 258.498 1022.53 259.465 1024.04 260.975L1027.49 257.531C1025.07 255.115 1021.75 253.604 1018.12 253.604 1014.5 253.604 1010.99 255.115 1008.64 257.531Z"/><path d="M1013.71 262.606 1018 266.896 1022.29 262.606C1021.14 261.519 1019.69 260.854 1018 260.854 1016.31 260.854 1014.8 261.519 1013.71 262.606Z"/></g></svg>