<svg width="96" height="96" xmlns="http://www.w3.org/2000/svg" xmlns:xlink="http://www.w3.org/1999/xlink" xml:space="preserve" overflow="hidden"><g transform="translate(-198 -184)"><path d="M246 209C233.3 209 221.8 214.2 213.5 222.5L219.2 228.2C226 221.3 235.5 217 246 217 256.5 217 266 221.3 272.9 228.1L278.6 222.4C270.1 214.2 258.7 209 246 209Z" fill="#FFFFFF"/><path d="M222 231 227.7 236.7C232.2 231.9 238.8 229 246 229 253.2 229 259.7 231.9 264.4 236.6L270 231C263.8 224.8 255.3 221 246 221 236.7 221 228.1 224.8 222 231Z" fill="#FFFFFF"/><path d="M230.5 239.5 236.2 245.2C238.7 242.7 242.2 241.1 246.1 241.1 250 241.1 253.5 242.7 256 245.2L261.7 239.5C257.7 235.5 252.2 233 246.2 233 240.2 233 234.4 235.5 230.5 239.5Z" fill="#FFFFFF"/><path d="M238.9 247.9 246 255 253.1 247.9C251.2 246.1 248.8 245 246 245 243.2 245 240.7 246.1 238.9 247.9Z" fill="#FFFFFF"/></g></svg>