<?xml version="1.0" encoding="utf-8"?>
<!-- Generator: Adobe Illustrator 26.0.2, SVG Export Plug-In . SVG Version: 6.00 Build 0)  -->
<svg version="1.1" id="Layer_1" xmlns="http://www.w3.org/2000/svg" xmlns:xlink="http://www.w3.org/1999/xlink" x="0px" y="0px"
	 viewBox="0 0 300 140" style="enable-background:new 0 0 300 140;" xml:space="preserve">
<style type="text/css">
	.st0{fill:#262C4D;}
</style>
<g>
	<path class="st0" d="M239.3,58.2V41h49.9V16.4h-36c-23.1,0-41.8,18.7-41.9,41.8v23.6c0.1,23.1,18.8,41.8,41.9,41.8h36V99h-49.9
		V58.2z"/>
	<polygon class="st0" points="178.9,70 197.7,41 211.4,41 211.4,16.4 205.6,16.4 182.3,16.4 156.9,16.4 156.9,41 166.4,41 
		155.6,57.7 139.5,57.7 139.5,41 150,41 150,16.4 139.5,16.4 111.6,16.4 103.2,16.4 98.9,16.4 10.7,16.4 10.7,41 41.8,41 
		41.8,123.6 69.7,123.6 69.7,41 98.9,41 103.2,41 111.6,41 111.6,99 97.6,99 97.6,123.6 111.6,123.6 139.5,123.6 150,123.6 150,99 
		139.5,99 139.5,82.3 155.6,82.3 166.4,99 156.9,99 156.9,123.6 182.3,123.6 203.2,123.6 211.4,123.6 211.4,99 197.7,99 	"/>
</g>
</svg>
