<svg width="58" height="58" xmlns="http://www.w3.org/2000/svg" xmlns:xlink="http://www.w3.org/1999/xlink" xml:space="preserve" overflow="hidden"><g transform="translate(-830 -55)"><path d="M852.958 93.6667 865.042 93.6667C866.069 93.6667 866.854 94.4521 866.854 95.4792 866.854 96.5062 866.069 97.2917 865.042 97.2917L852.958 97.2917C851.931 97.2917 851.146 96.5062 851.146 95.4792 851.146 94.4521 851.931 93.6667 852.958 93.6667Z" fill="#FFFFFF"/><path d="M852.958 99.7083 865.042 99.7083C866.069 99.7083 866.854 100.494 866.854 101.521 866.854 102.548 866.069 103.333 865.042 103.333L852.958 103.333C851.931 103.333 851.146 102.548 851.146 101.521 851.146 100.494 851.931 99.7083 852.958 99.7083Z" fill="#FFFFFF"/><path d="M855.073 105.75C855.254 107.804 856.946 109.375 859 109.375 861.054 109.375 862.746 107.804 862.927 105.75L855.073 105.75Z" fill="#FFFFFF"/><path d="M859 58.625C859 58.625 859 58.625 859 58.625 859 58.625 859 58.625 859 58.625 850.421 58.6854 843.473 65.5729 843.292 74.1521L843.292 74.6958C843.352 76.5687 843.715 78.3812 844.379 80.1333 845.044 81.7646 845.95 83.275 847.098 84.6042 848.548 86.175 850.119 89.2563 850.783 90.5854 850.965 91.0083 851.388 91.25 851.871 91.25L866.129 91.25C866.612 91.25 867.035 91.0083 867.217 90.5854 867.881 89.2563 869.452 86.175 870.902 84.6042 872.05 83.275 873.017 81.7646 873.621 80.1333 874.285 78.3812 874.648 76.5687 874.708 74.6958L874.708 74.1521C874.527 65.5729 867.579 58.6854 859 58.625ZM871.083 74.6354C871.023 76.0854 870.721 77.5354 870.237 78.8646 869.754 80.0729 869.09 81.2208 868.183 82.1875 866.794 83.8792 865.585 85.6917 864.679 87.625L859 87.625 853.381 87.625C852.415 85.6917 851.206 83.8792 849.877 82.1875 849.031 81.2208 848.306 80.0729 847.823 78.8646 847.279 77.5354 847.037 76.0854 846.977 74.6354L846.977 74.1521C847.098 67.5667 852.475 62.25 859.06 62.1896L859.06 62.1896 859.06 62.1896C859.06 62.1896 859.06 62.1896 859.06 62.1896 859.06 62.1896 859.06 62.1896 859.06 62.1896L859.06 62.1896 859.06 62.1896C865.646 62.25 871.023 67.5062 871.144 74.1521L871.144 74.6354Z" fill="#FFFFFF"/></g></svg>