<svg width="57" height="57" xmlns="http://www.w3.org/2000/svg" xmlns:xlink="http://www.w3.org/1999/xlink" xml:space="preserve" overflow="hidden"><g transform="translate(-917 -422)"><path d="M946.691 439.872 946.691 442.247C946.275 442.247 945.919 442.188 945.504 442.188 945.107 442.178 944.71 442.197 944.316 442.247L944.316 439.872C942.081 439.982 939.877 440.442 937.785 441.237L938.675 443.375C937.904 443.672 937.191 443.969 936.479 444.325L935.588 442.128C934.486 442.669 933.433 443.304 932.441 444.028L929.888 441.475C934.385 438.079 939.868 436.244 945.504 436.25 959.932 436.25 971.629 447.947 971.629 462.375L971.629 464.75 968.066 464.75 968.066 462.375C968.058 459.995 967.678 457.631 966.938 455.369L964.741 456.259C964.504 455.487 964.207 454.775 963.91 454.062L966.107 453.172C965.21 451.159 964.008 449.297 962.544 447.65L960.882 449.312C960.358 448.71 959.803 448.135 959.219 447.591L960.882 445.928C959.249 444.41 957.41 443.131 955.419 442.128L954.529 444.325C953.816 443.969 953.104 443.672 952.332 443.375L953.222 441.178C951.127 440.403 948.923 439.962 946.691 439.872Z" fill="#FFFFFF"/><path d="M924.069 447.413 926.622 449.966C925.968 450.969 925.392 452.021 924.9 453.112L927.097 454.062C926.8 454.775 926.504 455.547 926.266 456.259L924.069 455.369C923.329 457.631 922.949 459.995 922.941 462.375L922.941 464.75 919.379 464.75 919.379 462.375C919.366 457.024 921.004 451.799 924.069 447.413Z" fill="#FFFFFF"/><path d="M947.166 461.306C947.285 461.366 947.344 461.484 947.463 461.603 948.318 462.617 948.189 464.133 947.175 464.988 946.161 465.844 944.645 465.715 943.79 464.7 943.787 464.697 943.784 464.694 943.782 464.691L925.316 442.781Z" fill="#FFFFFF"/></g></svg>