<svg width="69" height="70" xmlns="http://www.w3.org/2000/svg" xmlns:xlink="http://www.w3.org/1999/xlink" xml:space="preserve" overflow="hidden"><g transform="translate(-608 -524)"><path d="M29.4688 47.4375C29.4688 50.0177 27.3771 52.1094 24.7969 52.1094 22.2167 52.1094 20.125 50.0177 20.125 47.4375 20.125 44.8573 22.2167 42.7656 24.7969 42.7656 27.3771 42.7656 29.4688 44.8573 29.4688 47.4375Z" fill="#FFFFFF" transform="matrix(1 0 0 1.01449 608 524)"/><path d="M58.2188 47.4375C58.2188 50.0177 56.1271 52.1094 53.5469 52.1094 50.9667 52.1094 48.875 50.0177 48.875 47.4375 48.875 44.8573 50.9667 42.7656 53.5469 42.7656 56.1271 42.7656 58.2188 44.8573 58.2188 47.4375Z" fill="#FFFFFF" transform="matrix(1 0 0 1.01449 608 524)"/><path d="M59.7209 35.2188 54.6897 35.2188C54.0496 35.233 53.4342 34.9711 53.0006 34.5L45.3963 26.9028C44.5178 25.8971 43.2838 25.2711 41.9534 25.1562L24.2434 25.1562C22.9166 25.2833 21.6868 25.9071 20.8006 26.9028L13.3041 34.5C12.8373 34.9605 12.5778 35.5909 12.5853 36.2466L12.5853 40.25 8.99156 40.25C8.39615 40.254 7.91027 39.7745 7.90625 39.1791 7.90625 39.1767 7.90625 39.1742 7.90625 39.1719L7.90625 26.7303C9.65526 26.1123 10.813 24.445 10.7812 22.5903L10.7812 20.125 9.34375 20.125 9.34375 17.25C9.34375 16.853 9.02197 16.5312 8.625 16.5312 8.22803 16.5312 7.90625 16.853 7.90625 17.25L7.90625 20.125 5.75 20.125 5.75 17.25C5.75 16.853 5.4282 16.5312 5.03125 16.5312 4.6343 16.5312 4.3125 16.853 4.3125 17.25L4.3125 20.125 2.875 20.125 2.875 22.5903C2.84321 24.445 4.00102 26.1123 5.75 26.7303L5.75 39.1719C5.75395 40.9565 7.19972 42.4023 8.98438 42.4062L12.5781 42.4062 12.5781 42.4062C12.586 45.0733 14.7482 47.2323 17.4153 47.2363L18.0191 47.2363C18.0071 43.5764 20.9644 40.5997 24.6243 40.5878 24.6387 40.5877 24.6531 40.5877 24.6675 40.5878 28.39 40.6547 31.36 43.7147 31.3159 47.4375L47.0278 47.4375C47.0036 43.7286 49.9679 40.6906 53.6763 40.6237 57.3361 40.6118 60.3128 43.5691 60.3247 47.229 60.3248 47.2434 60.3248 47.2578 60.3247 47.2722L63.3506 47.2722C64.6828 47.2682 65.7617 46.1893 65.7656 44.8572L65.7656 41.2634C65.7736 37.933 63.0802 35.2267 59.7498 35.2188 59.7401 35.2188 59.7306 35.2188 59.7209 35.2188ZM31.625 35.2188 16.0209 35.2188 22.5544 28.6566C23.0819 28.2201 23.7537 27.997 24.4375 28.0312L31.625 28.0312ZM33.7812 35.2188 33.7812 28.0312 42.0109 28.0312C42.6406 27.9812 43.2607 28.2097 43.7072 28.6566L50.2334 35.2188Z" fill="#FFFFFF" transform="matrix(1 0 0 1.01449 608 524)"/></g></svg>